<svg xmlns="http://www.w3.org/2000/svg" version="1.1" xmlns:xlink="http://www.w3.org/1999/xlink" xmlns:svgjs="http://svgjs.com/svgjs" height="69.9567373524541" width="288.08000183105463"><defs id="SvgjsDefs6040"></defs><g id="SvgjsG6041" rel="mainfill" name="main_text" xmlns:name="main_text" transform="translate(79.05999994277948,-202.20162399955422)" fill="#3cadb2"><path d="M16.29 238.86C16.29 239.84 17.08 240.31 18.65 240.31C20.22 240.31 21.00 239.84 21.00 238.86L21.00 213.93C21.00 212.87 20.57 212.36 19.71 212.36L4.24 212.36C3.38 212.36 2.94 212.87 2.94 213.93L2.94 238.86C2.94 239.84 3.73 240.31 5.30 240.31C6.87 240.31 7.66 239.84 7.66 238.86L7.66 216.37L16.29 216.37L16.29 238.86ZM34.86 216.37C37.77 216.37 39.22 217.94 39.22 221.12C39.22 224.30 37.77 225.87 34.86 225.87L31.60 225.87L31.60 216.37ZM35.29 229.87C40.63 229.87 43.93 226.77 43.93 221.12C43.93 215.46 40.63 212.36 35.29 212.36L28.38 212.36C27.40 212.36 26.89 212.87 26.89 213.85L26.89 238.86C26.89 239.84 27.68 240.31 29.25 240.31C30.82 240.31 31.60 239.84 31.60 238.86L31.60 229.87ZM62.15 231.28C62.15 234.46 60.26 236.47 57.48 236.47C54.69 236.47 52.80 234.46 52.80 231.28L52.80 221.08C52.80 217.90 54.69 215.89 57.48 215.89C60.26 215.89 62.15 217.90 62.15 221.08ZM66.82 220.92C66.82 218.21 65.92 216.01 64.15 214.36C62.38 212.71 60.15 211.89 57.48 211.89C54.81 211.89 52.57 212.71 50.80 214.36C49.04 216.01 48.13 218.21 48.13 220.92L48.13 231.44C48.13 234.15 49.04 236.35 50.80 238.00C52.57 239.65 54.81 240.47 57.48 240.47C60.15 240.47 62.38 239.65 64.15 238.00C65.92 236.35 66.82 234.15 66.82 231.44ZM94.81 225.51C94.81 222.80 93.91 220.61 92.14 218.96C90.38 217.31 88.14 216.48 85.47 216.48L85.47 213.50C85.47 212.52 84.68 212.05 83.11 212.05C81.54 212.05 80.76 212.52 80.76 213.50L80.76 216.48C78.09 216.48 75.85 217.31 74.08 218.96C72.32 220.61 71.41 222.80 71.41 225.51L71.41 226.85C71.41 229.56 72.32 231.76 74.08 233.40C75.85 235.05 78.09 235.88 80.76 235.88L80.76 238.86C80.76 239.84 81.54 240.31 83.11 240.31C84.68 240.31 85.47 239.84 85.47 238.86L85.47 235.88C88.14 235.88 90.38 235.05 92.14 233.40C93.91 231.76 94.81 229.56 94.81 226.85ZM90.14 226.69C90.14 229.87 88.26 231.87 85.47 231.87L85.47 220.49C88.26 220.49 90.14 222.49 90.14 225.67ZM76.09 225.67C76.09 222.49 77.97 220.49 80.76 220.49L80.76 231.87C77.97 231.87 76.09 229.87 76.09 226.69ZM117.94 213.50C117.94 212.52 117.15 212.05 115.58 212.05C114.68 212.05 113.97 212.28 113.54 212.71L104.51 221.31L104.51 213.50C104.51 212.52 103.72 212.05 102.15 212.05C100.58 212.05 99.80 212.52 99.80 213.50L99.80 238.86C99.80 239.84 100.58 240.31 102.15 240.31C103.72 240.31 104.51 239.84 104.51 238.86L104.51 227.28L113.22 219.04L113.22 238.86C113.22 239.84 114.01 240.31 115.58 240.31C117.15 240.31 117.94 239.84 117.94 238.86L117.94 213.50ZM139.29 243.34C139.29 244.32 140.08 244.79 141.65 244.79C143.22 244.79 144.00 244.32 144.00 243.34L144.00 237.57C144.00 236.51 143.57 236.00 142.71 236.00L141.53 236.00L141.53 213.93C141.53 212.87 141.10 212.36 140.24 212.36L133.05 212.36C128.54 212.36 125.63 215.11 125.63 219.82L125.63 225.04C125.63 229.13 125.00 232.78 123.75 236.00L122.77 236.00C121.90 236.00 121.47 236.51 121.47 237.57L121.47 243.34C121.47 244.32 122.25 244.79 123.83 244.79C125.40 244.79 126.18 244.32 126.18 243.34L126.18 240L139.29 240ZM128.61 236.00C129.75 232.62 130.34 228.97 130.34 225.08L130.34 220.29C130.34 217.66 131.44 216.37 133.64 216.37L136.82 216.37L136.82 236.00ZM162.42 240C163.24 240 163.67 239.33 163.67 238.00C163.67 236.66 163.24 236.00 162.42 236.00L152.64 236.00L152.64 227.71L161.24 227.71C162.06 227.71 162.50 227.04 162.50 225.71C162.50 224.37 162.06 223.71 161.24 223.71L152.64 223.71L152.64 216.37L162.22 216.37C163.05 216.37 163.48 215.70 163.48 214.36C163.48 213.03 163.05 212.36 162.22 212.36L149.23 212.36C148.36 212.36 147.93 212.87 147.93 213.93L147.93 238.43C147.93 239.49 148.36 240 149.23 240L162.42 240ZM172.98 223.98L172.98 213.50C172.98 212.52 172.19 212.05 170.62 212.05C169.05 212.05 168.27 212.52 168.27 213.50L168.27 238.86C168.27 239.84 169.05 240.31 170.62 240.31C172.19 240.31 172.98 239.84 172.98 238.86L172.98 227.99L181.30 227.99L181.30 238.86C181.30 239.84 182.09 240.31 183.66 240.31C185.23 240.31 186.01 239.84 186.01 238.86L186.01 213.50C186.01 212.52 185.23 212.05 183.66 212.05C182.09 212.05 181.30 212.52 181.30 213.50L181.30 223.98ZM191.19 212.36C190.37 212.36 189.94 213.03 189.94 214.36C189.94 215.70 190.37 216.37 191.19 216.37L197.12 216.37L197.12 238.86C197.12 239.84 197.91 240.31 199.48 240.31C201.05 240.31 201.83 239.84 201.83 238.86L201.83 216.37L207.76 216.37C208.59 216.37 209.02 215.70 209.02 214.36C209.02 213.03 208.59 212.36 207.76 212.36L191.19 212.36Z" fill="#3cadb2" style="fill: rgb(60, 173, 178);"></path></g><g id="SvgjsG6042" rel="mainfill" name="slogan_text" xmlns:name="slogan_text" transform="translate(81.26999998092646,-179.96163376517922)" fill="#000000"><path d="M4.43 240.12C5.17 240.12 5.84 239.96 6.10 239.88L5.93 239.03C5.65 239.07 5.12 239.22 4.54 239.22C2.43 239.22 1.81 238.30 1.81 236.33C1.81 234.48 2.73 233.43 4.11 233.43C4.92 233.43 5.41 233.63 5.80 233.79L6.12 232.96C5.75 232.76 5.12 232.55 4.14 232.55C2.06 232.55 0.73 234.01 0.73 236.37C0.73 239.02 1.85 240.12 4.43 240.12ZM17.45 240L18.49 240L18.49 233.63L20.96 233.63L20.96 232.74L14.98 232.74L14.98 233.63L17.45 233.63ZM33.28 240.16C35.18 240.16 36.59 238.92 36.59 236.37C36.59 233.94 35.52 232.55 33.37 232.55C31.43 232.55 30.03 233.94 30.03 236.45C30.03 238.83 31.27 240.16 33.28 240.16ZM33.36 239.30C31.64 239.30 31.11 237.90 31.11 236.38C31.11 235.01 31.57 233.42 33.33 233.42C35.11 233.42 35.52 235.03 35.52 236.37C35.52 237.82 35.10 239.30 33.36 239.30ZM46.55 240L47.56 240L47.56 235.15L47.49 233.95L49.57 240L50.98 240L53.27 233.96L53.23 235.15L53.23 240L54.24 240L54.24 232.74L52.83 232.74L50.29 239.30L48.00 232.74L46.55 232.74ZM66.10 240.11C67.54 240.11 68.28 239.39 68.63 239.16C68.71 239.81 69.40 240.08 70.00 240.08L70.18 240.08L70.25 239.26C69.93 239.22 69.57 239.10 69.57 238.55L69.57 234.52C69.57 233.08 68.60 232.57 66.99 232.57C65.91 232.57 64.98 232.86 64.66 232.99L64.89 233.82C65.20 233.72 66.02 233.48 66.69 233.48C67.98 233.48 68.55 233.71 68.55 234.87L68.55 235.84L66.82 235.86C65.64 235.89 64.04 236.28 64.04 238.04C64.04 239.39 64.80 240.11 66.10 240.11ZM66.37 239.26C65.57 239.26 65.05 238.92 65.05 237.95C65.05 237.22 65.68 236.68 66.81 236.64L68.55 236.57L68.55 238.46C68.36 238.56 67.28 239.26 66.37 239.26ZM81.87 240L82.91 240L82.91 233.63L85.39 233.63L85.39 232.74L79.40 232.74L79.40 233.63L81.87 233.63ZM97.70 240.16C99.60 240.16 101.01 238.92 101.01 236.37C101.01 233.94 99.95 232.55 97.79 232.55C95.85 232.55 94.46 233.94 94.46 236.45C94.46 238.83 95.69 240.16 97.70 240.16ZM97.78 239.30C96.07 239.30 95.53 237.90 95.53 236.38C95.53 235.01 96.00 233.42 97.76 233.42C99.54 233.42 99.95 235.03 99.95 236.37C99.95 237.82 99.52 239.30 97.78 239.30ZM110.16 240.23C111.04 239.95 111.63 239.49 112.01 238.75C112.50 237.79 112.73 236.21 112.92 233.62L115.27 233.62L115.27 240L116.31 240L116.31 232.74L111.96 232.74C111.88 235.24 111.63 237.34 111.17 238.20C110.84 238.83 110.31 239.11 109.82 239.32ZM129.50 240.16C131.40 240.16 132.81 238.92 132.81 236.37C132.81 233.94 131.75 232.55 129.60 232.55C127.65 232.55 126.26 233.94 126.26 236.45C126.26 238.83 127.49 240.16 129.50 240.16ZM129.58 239.30C127.87 239.30 127.33 237.90 127.33 236.38C127.33 235.01 127.80 233.42 129.56 233.42C131.34 233.42 131.75 235.03 131.75 236.37C131.75 237.82 131.32 239.30 129.58 239.30ZM142.78 240L143.83 240L143.83 233.63L147.30 233.63L147.30 232.74L142.78 232.74ZM157.01 240L158.06 240L161.56 235.07L162.11 234.13L162.09 235.05L162.09 240L163.14 240L163.14 232.74L162.09 232.74L158.59 237.69L158.03 238.62L158.06 237.70L158.06 232.74L157.01 232.74ZM173.09 240.08C173.70 240.05 174.43 239.89 175.19 238.80L176.13 237.37C176.25 237.38 176.50 237.38 176.65 237.38L177.73 237.38L177.73 240L178.78 240L178.78 232.74L176.26 232.74C174.78 232.74 173.64 233.64 173.64 235.15C173.64 236.13 174.20 236.86 175.07 237.13C175.04 237.17 174.50 238.08 174.47 238.10C173.98 238.82 173.64 239.08 172.93 239.24ZM176.54 236.57C175.53 236.57 174.72 236.17 174.72 235.16C174.72 234.17 175.28 233.63 176.33 233.63L177.73 233.63L177.73 236.57Z" fill="#000000" style="fill: rgb(0, 0, 0);"></path></g><g id="SvgjsG6043" rel="mainfill" name="symbol" xmlns:name="symbol_mainfill" transform="translate(-1.456521739130441,0.020391304977238168) scale(0.728260869565217)" fill="#3cadb2"><path d="M69.992-0.028c-4.188,0-8.044,1.072-11.768,2.104c-2.856,0.796-5.584,1.52-8.332,1.776  c6.463,3.992,11.979,8.648,14.584,12.04c0.672,0.88,0.5,2.132-0.369,2.808c-0.367,0.28-0.795,0.412-1.219,0.412  c-0.601,0-1.193-0.268-1.584-0.78c-4-5.22-16.084-14.084-26.917-17.32C32,0.424,29.324-0.028,26-0.028c-13.236,0-24,10.764-24,24  c0,6.9,2.932,13.392,8.08,17.956c0.196,21.904,7.244,54.104,17.796,54.104c5.112,0,6.804-7.048,8.944-15.968  c2.26-9.416,4.824-20.092,11.18-20.092c6.352,0,8.92,10.68,11.18,20.092c2.141,8.92,3.828,15.968,8.94,15.968  c6.147,0,10.403-10.484,12.888-19.269C84,66.176,85.82,53.225,85.92,41.924C91.068,37.356,94,30.868,94,23.968  C93.992,10.736,83.232-0.028,69.992-0.028z" fill="#3cadb2" style="fill: rgb(60, 173, 178);"></path></g></svg>