<svg xmlns="http://www.w3.org/2000/svg" version="1.1" xmlns:xlink="http://www.w3.org/1999/xlink" xmlns:svgjs="http://svgjs.com/svgjs" height="69.9567373524541" width="366.8099975585937"><defs id="SvgjsDefs1391"></defs><g id="SvgjsG1392" rel="mainfill" name="main_text" xmlns:name="main_text" transform="translate(77.92999982833857,-198.6116276616636)" fill="#3cadb2"><path d="M22.52 238.43C22.52 239.78 23.60 240.43 25.77 240.43C27.94 240.43 29.03 239.78 29.03 238.43L29.03 203.97C29.03 202.51 28.43 201.80 27.24 201.80L5.86 201.80C4.67 201.80 4.07 202.51 4.07 203.97L4.07 238.43C4.07 239.78 5.15 240.43 7.33 240.43C9.50 240.43 10.58 239.78 10.58 238.43L10.58 207.34L22.52 207.34L22.52 238.43ZM48.18 207.34C52.20 207.34 54.21 209.51 54.21 213.90C54.21 218.30 52.20 220.47 48.18 220.47L43.68 220.47L43.68 207.34ZM48.78 226.00C56.16 226.00 60.72 221.71 60.72 213.90C60.72 206.09 56.16 201.80 48.78 201.80L39.23 201.80C37.87 201.80 37.17 202.51 37.17 203.86L37.17 238.43C37.17 239.78 38.25 240.43 40.42 240.43C42.59 240.43 43.68 239.78 43.68 238.43L43.68 226.00ZM85.89 227.95C85.89 232.35 83.29 235.12 79.44 235.12C75.58 235.12 72.98 232.35 72.98 227.95L72.98 213.85C72.98 209.45 75.58 206.68 79.44 206.68C83.29 206.68 85.89 209.45 85.89 213.85ZM92.35 213.63C92.35 209.89 91.10 206.85 88.66 204.57C86.22 202.29 83.13 201.15 79.44 201.15C75.75 201.15 72.65 202.29 70.21 204.57C67.77 206.85 66.52 209.89 66.52 213.63L66.52 228.17C66.52 231.92 67.77 234.95 70.21 237.23C72.65 239.51 75.75 240.65 79.44 240.65C83.13 240.65 86.22 239.51 88.66 237.23C91.10 234.95 92.35 231.92 92.35 228.17ZM131.04 219.98C131.04 216.23 129.79 213.20 127.35 210.92C124.91 208.64 121.81 207.50 118.12 207.50L118.12 203.37C118.12 202.02 117.04 201.37 114.87 201.37C112.70 201.37 111.61 202.02 111.61 203.37L111.61 207.50C107.92 207.50 104.83 208.64 102.39 210.92C99.95 213.20 98.70 216.23 98.70 219.98L98.70 221.82C98.70 225.57 99.95 228.61 102.39 230.88C104.83 233.16 107.92 234.30 111.61 234.30L111.61 238.43C111.61 239.78 112.70 240.43 114.87 240.43C117.04 240.43 118.12 239.78 118.12 238.43L118.12 234.30C121.81 234.30 124.91 233.16 127.35 230.88C129.79 228.61 131.04 225.57 131.04 221.82ZM124.58 221.61C124.58 226.00 121.98 228.77 118.12 228.77L118.12 213.03C121.98 213.03 124.58 215.80 124.58 220.20ZM105.16 220.20C105.16 215.80 107.76 213.03 111.61 213.03L111.61 228.77C107.76 228.77 105.16 226.00 105.16 221.61ZM163.00 203.37C163.00 202.02 161.91 201.37 159.74 201.37C158.49 201.37 157.52 201.69 156.92 202.29L144.44 214.17L144.44 203.37C144.44 202.02 143.35 201.37 141.18 201.37C139.01 201.37 137.93 202.02 137.93 203.37L137.93 238.43C137.93 239.78 139.01 240.43 141.18 240.43C143.35 240.43 144.44 239.78 144.44 238.43L144.44 222.42L156.49 211.03L156.49 238.43C156.49 239.78 157.57 240.43 159.74 240.43C161.91 240.43 163.00 239.78 163.00 238.43L163.00 203.37ZM192.51 244.61C192.51 245.97 193.60 246.62 195.77 246.62C197.94 246.62 199.03 245.97 199.03 244.61L199.03 236.64C199.03 235.17 198.43 234.47 197.24 234.47L195.61 234.47L195.61 203.97C195.61 202.51 195.01 201.80 193.82 201.80L183.89 201.80C177.65 201.80 173.63 205.60 173.63 212.11L173.63 219.33C173.63 224.97 172.76 230.02 171.03 234.47L169.67 234.47C168.48 234.47 167.88 235.17 167.88 236.64L167.88 244.61C167.88 245.97 168.97 246.62 171.14 246.62C173.31 246.62 174.39 245.97 174.39 244.61L174.39 240L192.51 240ZM177.76 234.47C179.33 229.80 180.14 224.75 180.14 219.38L180.14 212.76C180.14 209.13 181.66 207.34 184.70 207.34L189.10 207.34L189.10 234.47ZM224.47 240C225.61 240 226.21 239.08 226.21 237.23C226.21 235.39 225.61 234.47 224.47 234.47L210.96 234.47L210.96 223.02L222.85 223.02C223.99 223.02 224.58 222.09 224.58 220.25C224.58 218.40 223.99 217.48 222.85 217.48L210.96 217.48L210.96 207.34L224.20 207.34C225.34 207.34 225.94 206.41 225.94 204.57C225.94 202.72 225.34 201.80 224.20 201.80L206.24 201.80C205.05 201.80 204.45 202.51 204.45 203.97L204.45 237.83C204.45 239.29 205.05 240 206.24 240L224.47 240ZM239.07 217.86L239.07 203.37C239.07 202.02 237.98 201.37 235.81 201.37C233.64 201.37 232.56 202.02 232.56 203.37L232.56 238.43C232.56 239.78 233.64 240.43 235.81 240.43C237.98 240.43 239.07 239.78 239.07 238.43L239.07 223.40L250.57 223.40L250.57 238.43C250.57 239.78 251.66 240.43 253.83 240.43C256.00 240.43 257.08 239.78 257.08 238.43L257.08 203.37C257.08 202.02 256.00 201.37 253.83 201.37C251.66 201.37 250.57 202.02 250.57 203.37L250.57 217.86ZM264.25 201.80C263.11 201.80 262.51 202.72 262.51 204.57C262.51 206.41 263.11 207.34 264.25 207.34L272.44 207.34L272.44 238.43C272.44 239.78 273.52 240.43 275.70 240.43C277.87 240.43 278.95 239.78 278.95 238.43L278.95 207.34L287.14 207.34C288.28 207.34 288.88 206.41 288.88 204.57C288.88 202.72 288.28 201.80 287.14 201.80L264.25 201.80Z" fill="#3cadb2" style="fill: rgb(60, 173, 178);"></path></g><g id="SvgjsG1393" rel="mainfill" name="slogan_text" xmlns:name="slogan_text" transform="translate(81.09999996423716,-172.8616276616636)" fill="#000000"><path d="M5.43 240.15C6.34 240.15 7.16 239.95 7.48 239.85L7.27 238.81C6.93 238.86 6.28 239.04 5.56 239.04C2.98 239.04 2.22 237.91 2.22 235.50C2.22 233.24 3.34 231.95 5.04 231.95C6.03 231.95 6.63 232.19 7.11 232.39L7.50 231.38C7.04 231.13 6.28 230.87 5.07 230.87C2.53 230.87 0.90 232.66 0.90 235.55C0.90 238.79 2.27 240.15 5.43 240.15ZM13.24 240L14.51 240L14.51 232.19L17.54 232.19L17.54 231.10L10.20 231.10L10.20 232.19L13.24 232.19ZM24.48 240.20C26.81 240.20 28.54 238.68 28.54 235.55C28.54 232.57 27.24 230.87 24.60 230.87C22.22 230.87 20.51 232.57 20.51 235.65C20.51 238.57 22.02 240.20 24.48 240.20ZM24.58 239.14C22.48 239.14 21.83 237.42 21.83 235.57C21.83 233.89 22.40 231.93 24.55 231.93C26.73 231.93 27.24 233.90 27.24 235.55C27.24 237.33 26.72 239.14 24.58 239.14ZM32.60 240L33.84 240L33.84 234.05L33.76 232.58L36.30 240L38.03 240L40.83 232.60L40.78 234.05L40.78 240L42.02 240L42.02 231.10L40.29 231.10L37.18 239.14L34.38 231.10L32.60 231.10ZM48.41 240.13C50.17 240.13 51.08 239.25 51.51 238.97C51.61 239.77 52.45 240.10 53.19 240.10L53.42 240.10L53.50 239.09C53.11 239.04 52.67 238.89 52.67 238.22L52.67 233.28C52.67 231.52 51.48 230.89 49.50 230.89C48.18 230.89 47.04 231.25 46.65 231.41L46.93 232.42C47.30 232.31 48.31 232.01 49.13 232.01C50.71 232.01 51.41 232.29 51.41 233.71L51.41 234.90L49.29 234.93C47.84 234.96 45.88 235.44 45.88 237.60C45.88 239.25 46.81 240.13 48.41 240.13ZM48.74 239.09C47.76 239.09 47.12 238.68 47.12 237.49C47.12 236.59 47.89 235.93 49.27 235.88L51.41 235.79L51.41 238.11C51.18 238.24 49.86 239.09 48.74 239.09ZM59.59 240L60.86 240L60.86 232.19L63.90 232.19L63.90 231.10L56.56 231.10L56.56 232.19L59.59 232.19ZM70.84 240.20C73.17 240.20 74.90 238.68 74.90 235.55C74.90 232.57 73.59 230.87 70.95 230.87C68.57 230.87 66.86 232.57 66.86 235.65C66.86 238.57 68.38 240.20 70.84 240.20ZM70.94 239.14C68.83 239.14 68.18 237.42 68.18 235.57C68.18 233.89 68.75 231.93 70.91 231.93C73.09 231.93 73.59 233.90 73.59 235.55C73.59 237.33 73.07 239.14 70.94 239.14ZM77.96 240.28C79.04 239.93 79.76 239.38 80.23 238.47C80.83 237.29 81.11 235.35 81.34 232.18L84.22 232.18L84.22 240L85.49 240L85.49 231.10L80.16 231.10C80.07 234.16 79.76 236.74 79.20 237.80C78.79 238.57 78.14 238.91 77.54 239.17ZM93.51 240.20C95.84 240.20 97.57 238.68 97.57 235.55C97.57 232.57 96.27 230.87 93.63 230.87C91.25 230.87 89.54 232.57 89.54 235.65C89.54 238.57 91.05 240.20 93.51 240.20ZM93.61 239.14C91.51 239.14 90.86 237.42 90.86 235.57C90.86 233.89 91.43 231.93 93.58 231.93C95.76 231.93 96.27 233.90 96.27 235.55C96.27 237.33 95.75 239.14 93.61 239.14ZM101.63 240L102.92 240L102.92 232.19L107.17 232.19L107.17 231.10L101.63 231.10ZM110.92 240L112.21 240L116.50 233.95L117.18 232.81L117.15 233.94L117.15 240L118.44 240L118.44 231.10L117.15 231.10L112.86 237.16L112.18 238.30L112.21 237.18L112.21 231.10L110.92 231.10ZM127.97 240L129.26 240L129.26 231.10L127.97 231.10L127.97 235.03C127.35 235.24 126.63 235.47 125.74 235.47C124.08 235.47 123.85 234.80 123.85 233.81L123.85 231.10L122.58 231.10L122.58 233.95C122.58 235.55 123.11 236.56 125.30 236.56C126.37 236.56 127.17 236.33 127.97 236.10ZM137.51 240.20C138.96 240.20 140.03 239.89 140.33 239.77L140.10 238.71C139.71 238.83 138.55 239.09 137.90 239.09C136.06 239.09 134.65 238.63 134.61 235.79L140.49 235.79L140.49 235.32C140.49 232.37 139.48 230.87 137.28 230.87C135.05 230.87 133.30 232.11 133.30 235.71C133.30 239.12 134.93 240.20 137.51 240.20ZM134.62 234.83C134.78 232.84 135.75 231.83 137.08 231.83C138.48 231.83 139.14 233.04 139.14 234.83ZM148.31 240.15C149.23 240.15 150.04 239.95 150.37 239.85L150.16 238.81C149.81 238.86 149.16 239.04 148.44 239.04C145.87 239.04 145.10 237.91 145.10 235.50C145.10 233.24 146.23 231.95 147.92 231.95C148.92 231.95 149.52 232.19 149.99 232.39L150.38 231.38C149.93 231.13 149.16 230.87 147.96 230.87C145.41 230.87 143.78 232.66 143.78 235.55C143.78 238.79 145.15 240.15 148.31 240.15ZM161.04 240.13L161.30 239.17C160.77 239.02 159.98 238.48 159.14 237.51L157.25 235.32L160.91 231.10L159.41 231.10L155.81 235.39L158.37 238.48C159.54 239.89 160.44 240.10 161.04 240.13ZM154.15 240L155.44 240L155.44 231.10L154.15 231.10ZM166.47 240.13C168.23 240.13 169.15 239.25 169.57 238.97C169.67 239.77 170.51 240.10 171.25 240.10L171.48 240.10L171.56 239.09C171.17 239.04 170.73 238.89 170.73 238.22L170.73 233.28C170.73 231.52 169.54 230.89 167.56 230.89C166.24 230.89 165.10 231.25 164.71 231.41L164.99 232.42C165.36 232.31 166.37 232.01 167.19 232.01C168.77 232.01 169.47 232.29 169.47 233.71L169.47 234.90L167.35 234.93C165.90 234.96 163.95 235.44 163.95 237.60C163.95 239.25 164.87 240.13 166.47 240.13ZM166.80 239.09C165.82 239.09 165.18 238.68 165.18 237.49C165.18 236.59 165.95 235.93 167.34 235.88L169.47 235.79L169.47 238.11C169.24 238.24 167.92 239.09 166.80 239.09ZM175.06 240.10C175.81 240.07 176.71 239.87 177.64 238.53L178.79 236.77C178.94 236.79 179.25 236.79 179.43 236.79L180.75 236.79L180.75 240L182.04 240L182.04 231.10L178.96 231.10C177.13 231.10 175.75 232.21 175.75 234.05C175.75 235.26 176.43 236.15 177.49 236.48C177.46 236.53 176.79 237.65 176.76 237.67C176.15 238.55 175.75 238.88 174.87 239.07ZM179.30 235.79C178.06 235.79 177.07 235.31 177.07 234.07C177.07 232.86 177.75 232.19 179.04 232.19L180.75 232.19L180.75 235.79ZM198.66 240.13L198.93 239.17C198.39 239.02 197.60 238.48 196.76 237.51L194.87 235.32L198.53 231.10L197.03 231.10L193.43 235.39L195.99 238.48C197.16 239.89 198.06 240.10 198.66 240.13ZM191.77 240L193.06 240L193.06 231.10L191.77 231.10ZM201.39 240.28C202.46 239.93 203.18 239.38 203.65 238.47C204.26 237.29 204.53 235.35 204.76 232.18L207.65 232.18L207.65 240L208.92 240L208.92 231.10L203.59 231.10C203.49 234.16 203.18 236.74 202.63 237.80C202.22 238.57 201.57 238.91 200.96 239.17ZM213.58 240L214.87 240L219.15 233.95L219.84 232.81L219.81 233.94L219.81 240L221.09 240L221.09 231.10L219.81 231.10L215.52 237.16L214.83 238.30L214.87 237.18L214.87 231.10L213.58 231.10ZM225.75 240L227.04 240L227.04 236.09L231.66 236.09L231.66 240L232.94 240L232.94 231.10L231.66 231.10L231.66 235.00L227.04 235.00L227.04 231.10L225.75 231.10ZM237.61 240L238.89 240L243.18 233.95L243.86 232.81L243.83 233.94L243.83 240L245.12 240L245.12 231.10L243.83 231.10L239.54 237.16L238.86 238.30L238.89 237.18L238.89 231.10L237.61 231.10ZM256.68 240.13L256.94 239.17C256.40 239.02 255.62 238.48 254.77 237.51L252.88 235.32L256.55 231.10L255.05 231.10L251.44 235.39L254.00 238.48C255.18 239.89 256.07 240.10 256.68 240.13ZM249.78 240L251.07 240L251.07 231.10L249.78 231.10ZM262.10 240.13C263.86 240.13 264.78 239.25 265.20 238.97C265.30 239.77 266.15 240.10 266.88 240.10L267.11 240.10L267.19 239.09C266.80 239.04 266.36 238.89 266.36 238.22L266.36 233.28C266.36 231.52 265.17 230.89 263.20 230.89C261.88 230.89 260.73 231.25 260.34 231.41L260.62 232.42C261.00 232.31 262.01 232.01 262.82 232.01C264.40 232.01 265.10 232.29 265.10 233.71L265.10 234.90L262.98 234.93C261.53 234.96 259.58 235.44 259.58 237.60C259.58 239.25 260.51 240.13 262.10 240.13ZM262.43 239.09C261.45 239.09 260.82 238.68 260.82 237.49C260.82 236.59 261.58 235.93 262.97 235.88L265.10 235.79L265.10 238.11C264.87 238.24 263.55 239.09 262.43 239.09Z" fill="#000000" style="fill: rgb(0, 0, 0);"></path></g><g id="SvgjsG1394" rel="mainfill" name="symbol" xmlns:name="symbol_mainfill" transform="translate(-1.456521739130441,0.020391304977238168) scale(0.728260869565217)" fill="#3cadb2"><path d="M69.992-0.028c-4.188,0-8.044,1.072-11.768,2.104c-2.856,0.796-5.584,1.52-8.332,1.776  c6.463,3.992,11.979,8.648,14.584,12.04c0.672,0.88,0.5,2.132-0.369,2.808c-0.367,0.28-0.795,0.412-1.219,0.412  c-0.601,0-1.193-0.268-1.584-0.78c-4-5.22-16.084-14.084-26.917-17.32C32,0.424,29.324-0.028,26-0.028c-13.236,0-24,10.764-24,24  c0,6.9,2.932,13.392,8.08,17.956c0.196,21.904,7.244,54.104,17.796,54.104c5.112,0,6.804-7.048,8.944-15.968  c2.26-9.416,4.824-20.092,11.18-20.092c6.352,0,8.92,10.68,11.18,20.092c2.141,8.92,3.828,15.968,8.94,15.968  c6.147,0,10.403-10.484,12.888-19.269C84,66.176,85.82,53.225,85.92,41.924C91.068,37.356,94,30.868,94,23.968  C93.992,10.736,83.232-0.028,69.992-0.028z" fill="#3cadb2" style="fill: rgb(60, 173, 178);"></path></g></svg>